# xmcd
#
# Track frame offsets:
#	150
#	14921
#	33280
#	48263
#	66507
#	81442
#	99901
#	118461
#	131720
#	148678
#	164383
#	184738
#	203386
#	220602
#	234262
#	252304
#	267461
#	283685
#
# Disc length: 3976 seconds
#
# Revision: 1
# Processed by: cddbd v1.5.1PL2 Copyright (c) Steve Scherf et al.
# Submitted via: EasyCDDAExtractor 6.2.0.3
#
DISCID=0f0f8612
DTITLE=Hellbilly Drunkard - It's Not A Woman Thing
DYEAR=2006
DGENRE=Country
TTITLE0=Ain't No Country Bar
TTITLE1=Whiskey Bottle Of Ashes
TTITLE2=Jerk You Off My Mind
TTITLE3=Kill The Drunk Man
TTITLE4=Designated Drinker
TTITLE5=My Baby's Smile
TTITLE6=Luckiest Man Alive
TTITLE7=Wino Road
TTITLE8=Precious Gift
TTITLE9=It's Not A Woman Thing
TTITLE10=Your Love Is Like Whiskey
TTITLE11=Gunnin' For You
TTITLE12=Tears On A Stone
TTITLE13=10 Beers, 5 Shots, 1 Ugly Woman
TTITLE14=Doggone
TTITLE15=My Girlfriend Caught Me Cheatin'
TTITLE16=Pepper Spray
TTITLE17=Lost My Way
EXTD=
EXTT0=
EXTT1=
EXTT2=
EXTT3=
EXTT4=
EXTT5=
EXTT6=
EXTT7=
EXTT8=
EXTT9=
EXTT10=
EXTT11=
EXTT12=
EXTT13=
EXTT14=
EXTT15=
EXTT16=
EXTT17=
PLAYORDER=
